<svg width="50" height="76" viewBox="0 0 99 76" fill="none" xmlns="http://www.w3.org/2000/svg" >
<path d="M89.4922 3.5144H9.19482C6.44446 3.5144 4.21484 5.21429 4.21484 7.3112V68.531C4.21484 70.6279 6.44446 72.3278 9.19482 72.3278H89.4922C92.2426 72.3278 94.4722 70.6279 94.4722 68.531V7.3112C94.4722 5.21429 92.2426 3.5144 89.4922 3.5144Z" fill="#3D5A98"/>
<path d="M66.4828 72.3221V45.6747H78.2121L79.9661 35.2902H66.4828V28.6618C66.4828 25.6557 67.581 23.6033 73.2321 23.6033H80.4466V14.3002C76.9531 14.0226 73.4423 13.8906 69.9299 13.9048C59.5429 13.9048 52.3894 18.7308 52.3894 27.6326V35.2902H40.6602V45.6747H52.3894V72.3221H66.4828Z" fill="white"/>
</svg>
