<svg width="50" height="76" viewBox="0 0 98 76" fill="none" xmlns="http://www.w3.org/2000/svg">
<g clip-path="url(#clip0_97_4950)">
<path d="M75.0835 0.681885H23.2246C10.5889 0.681885 0.345703 8.49146 0.345703 18.1251V57.6629C0.345703 67.2965 10.5889 75.1061 23.2246 75.1061H75.0835C87.7192 75.1061 97.9624 67.2965 97.9624 57.6629V18.1251C97.9624 8.49146 87.7192 0.681885 75.0835 0.681885Z" fill="url(#paint0_radial_97_4950)"/>
<path d="M75.0835 0.681885H23.2246C10.5889 0.681885 0.345703 8.49146 0.345703 18.1251V57.6629C0.345703 67.2965 10.5889 75.1061 23.2246 75.1061H75.0835C87.7192 75.1061 97.9624 67.2965 97.9624 57.6629V18.1251C97.9624 8.49146 87.7192 0.681885 75.0835 0.681885Z" fill="url(#paint1_radial_97_4950)"/>
<path d="M49.1584 8.82202C38.8026 8.82202 37.5027 8.85662 33.4356 8.99762C29.3761 9.13949 26.6051 9.62935 24.1807 10.3483C21.6724 11.0908 19.5451 12.0842 17.4257 13.7006C15.3045 15.3167 14.0015 16.9386 13.0246 18.8501C12.0789 20.6991 11.4356 22.8126 11.253 25.9062C11.0711 29.0073 11.0234 29.9986 11.0234 37.8943C11.0234 45.7899 11.0692 46.7778 11.2538 49.8786C11.4406 52.9736 12.0831 55.0863 13.0253 56.9347C14 58.847 15.3029 60.469 17.4231 62.0848C19.542 63.702 21.6694 64.6978 24.1758 65.4403C26.6021 66.1592 29.3735 66.6491 33.4322 66.7909C37.4997 66.9319 38.7984 66.9665 49.1538 66.9665C59.5107 66.9665 60.8064 66.9319 64.8736 66.7909C68.933 66.6491 71.7071 66.1592 74.1334 65.4403C76.6406 64.6978 78.7649 63.702 80.8835 62.0848C83.0047 60.469 84.3073 58.847 85.2846 56.9355C86.2219 55.0863 86.8655 52.973 87.0562 49.8792C87.2388 46.7784 87.2865 45.7899 87.2865 37.8943C87.2865 29.9986 87.2388 29.0079 87.0562 25.9067C86.8655 22.8117 86.2219 20.6994 85.2846 18.851C84.3073 16.9386 83.0047 15.3167 80.8835 13.7006C78.7626 12.0836 76.6413 11.0902 74.1311 10.3486C71.7002 9.62935 68.9277 9.1392 64.8682 8.99762C60.8007 8.85662 59.5058 8.82202 49.1466 8.82202H49.1584ZM45.7376 14.0611C46.7531 14.0599 47.886 14.0611 49.1584 14.0611C59.3399 14.0611 60.5464 14.089 64.567 14.2282C68.2848 14.3579 70.3027 14.8315 71.6469 15.2295C73.4265 15.7563 74.6951 16.3863 76.0289 17.4041C77.3635 18.4216 78.1895 19.3906 78.8823 20.7473C79.4043 21.7707 80.0263 23.3092 80.1956 26.1437C80.3782 29.2084 80.4179 30.1289 80.4179 37.8876C80.4179 45.6463 80.3782 46.567 80.1956 49.6315C80.0255 52.466 79.4043 54.0045 78.8823 55.0281C78.1914 56.3849 77.3635 57.351 76.0289 58.3679C74.6943 59.3854 73.4272 60.0151 71.6469 60.5422C70.3042 60.942 68.2848 61.4144 64.567 61.544C60.5471 61.6833 59.3399 61.7135 49.1584 61.7135C38.9765 61.7135 37.7697 61.6833 33.7502 61.544C30.0324 61.4132 28.0145 60.9396 26.6692 60.5416C24.89 60.0146 23.6187 59.3849 22.2841 58.3673C20.9495 57.3498 20.1235 56.3832 19.4307 55.0258C18.9087 54.0022 18.2867 52.4637 18.1174 49.6292C17.9348 46.5644 17.8982 45.644 17.8982 37.8803C17.8982 30.1169 17.9348 29.2012 18.1174 26.1364C18.2875 23.3019 18.9087 21.7634 19.4307 20.7386C20.122 19.3818 20.9495 18.4129 22.2844 17.3953C23.619 16.3778 24.89 15.7478 26.6696 15.2199C28.0137 14.8201 30.0324 14.3477 33.7502 14.2175C37.2678 14.0963 38.631 14.0599 45.7376 14.0538V14.0611ZM69.513 18.8882C66.9868 18.8882 64.9372 20.4494 64.9372 22.3757C64.9372 24.3017 66.9868 25.8643 69.513 25.8643C72.0392 25.8643 74.0888 24.3017 74.0888 22.3757C74.0888 20.4496 72.0392 18.887 69.513 18.887V18.8882ZM49.1584 22.9644C38.3443 22.9644 29.5763 29.6492 29.5763 37.8943C29.5763 46.1394 38.3443 52.821 49.1584 52.821C59.9729 52.821 68.7378 46.1394 68.7378 37.8943C68.7378 29.6495 59.9721 22.9644 49.1576 22.9644H49.1584ZM49.1584 28.2034C56.178 28.2034 61.8692 32.5418 61.8692 37.8943C61.8692 43.2461 56.178 47.5851 49.1584 47.5851C42.1384 47.5851 36.448 43.2461 36.448 37.8943C36.448 32.5418 42.1384 28.2034 49.1584 28.2034Z" fill="white"/>
</g>
<defs>
<radialGradient id="paint0_radial_97_4950" cx="0" cy="0" r="1" gradientUnits="userSpaceOnUse" gradientTransform="translate(26.2751 80.8382) rotate(-90) scale(73.7599 89.9809)">
<stop stop-color="#FFDD55"/>
<stop offset="0.1" stop-color="#FFDD55"/>
<stop offset="0.5" stop-color="#FF543E"/>
<stop offset="1" stop-color="#C837AB"/>
</radialGradient>
<radialGradient id="paint1_radial_97_4950" cx="0" cy="0" r="1" gradientUnits="userSpaceOnUse" gradientTransform="translate(-16.0055 6.04305) rotate(75.2895) scale(33.4254 175.837)">
<stop stop-color="#3771C8"/>
<stop offset="0.128" stop-color="#3771C8"/>
<stop offset="1" stop-color="#6600FF" stop-opacity="0"/>
</radialGradient>
<clipPath id="clip0_97_4950">
<rect width="97.6167" height="74.4242" fill="white" transform="translate(0.345703 0.681885)"/>
</clipPath>
</defs>
</svg>
