<svg width="80" height="40" viewBox="0 0 99 75" fill="none" xmlns="http://www.w3.org/2000/svg">
<path d="M87.5377 22.9073C87.0921 21.6277 86.2132 20.4598 84.9892 19.5206C83.7652 18.5814 82.2391 17.9039 80.5636 17.556C74.4124 16.2908 49.7465 16.2908 49.7465 16.2908C49.7465 16.2908 25.0807 16.2908 18.9295 17.556C17.2539 17.9039 15.7278 18.5814 14.5038 19.5206C13.2798 20.4598 12.4009 21.6277 11.9553 22.9073C10.3066 27.627 10.3066 37.4758 10.3066 37.4758C10.3066 37.4758 10.3066 47.3246 11.9553 52.0454C12.4009 53.325 13.2798 54.4929 14.5038 55.4321C15.7278 56.3713 17.2539 57.0488 18.9295 57.3967C25.0807 58.6609 49.7465 58.6609 49.7465 58.6609C49.7465 58.6609 74.4124 58.6609 80.5636 57.3967C82.2391 57.0488 83.7652 56.3713 84.9892 55.4321C86.2132 54.4929 87.0921 53.325 87.5377 52.0454C89.1864 47.3246 89.1864 37.4758 89.1864 37.4758C89.1864 37.4758 89.1864 27.627 87.5377 22.9073Z" fill="#EA5A47"/>
<path d="M41.6797 46.4172L62.2958 37.4759L41.6797 28.5347V46.4172Z" fill="white"/>
<path d="M87.5377 22.9073C87.0921 21.6277 86.2132 20.4598 84.9892 19.5206C83.7652 18.5814 82.2391 17.9039 80.5636 17.556C74.4124 16.2908 49.7465 16.2908 49.7465 16.2908C49.7465 16.2908 25.0807 16.2908 18.9295 17.556C17.2539 17.9039 15.7278 18.5814 14.5038 19.5206C13.2798 20.4598 12.4009 21.6277 11.9553 22.9073C10.3066 27.627 10.3066 37.4758 10.3066 37.4758C10.3066 37.4758 10.3066 47.3246 11.9553 52.0454C12.4009 53.325 13.2798 54.4929 14.5038 55.4321C15.7278 56.3713 17.2539 57.0488 18.9295 57.3967C25.0807 58.6609 49.7465 58.6609 49.7465 58.6609C49.7465 58.6609 74.4124 58.6609 80.5636 57.3967C82.2391 57.0488 83.7652 56.3713 84.9892 55.4321C86.2132 54.4929 87.0921 53.325 87.5377 52.0454C89.1864 47.3246 89.1864 37.4758 89.1864 37.4758C89.1864 37.4758 89.1864 27.627 87.5377 22.9073Z" stroke="black" stroke-width="2" stroke-miterlimit="10"/>
<path d="M41.6797 46.4172L62.2958 37.4759L41.6797 28.5347V46.4172Z" stroke="black" stroke-width="2" stroke-miterlimit="10" stroke-linecap="round" stroke-linejoin="round"/>
</svg>
